<?xml version="1.0" encoding="UTF-8" standalone="no"?><!DOCTYPE svg PUBLIC "-//W3C//DTD SVG 1.1//EN" "http://www.w3.org/Graphics/SVG/1.1/DTD/svg11.dtd"><svg width="100%" height="100%" viewBox="0 0 1000 1000" version="1.1" xmlns="http://www.w3.org/2000/svg" xmlns:xlink="http://www.w3.org/1999/xlink" xml:space="preserve" xmlns:serif="http://www.serif.com/" style="fill-rule:evenodd;clip-rule:evenodd;stroke-linecap:square;stroke-linejoin:round;stroke-miterlimit:1.5;"><g id="Logo-1---blanc" serif:id="Logo 1 - blanc"><path d="M317.664,367.315l0,201.058l-111.695,-0l0,-201.058l111.695,-0Zm143.481,-52.251l-0,253.309l-111.696,-0l0,-253.309l111.696,-0Zm143.48,-41.333l0,294.642l-111.695,-0l-0,-294.642l111.695,0Zm143.481,-42.941l-0,337.583l-111.696,-0l0,-337.583l111.696,-0Z" style="fill:#fff;"/><g><path d="M176.187,588.766c0,-0 46.933,-141.646 167.602,-188.048c130.264,-50.093 143.339,1.033 257.115,-21.61c120.053,-23.892 166.055,-164.992 166.055,-164.992" style="fill:none;stroke:#fff;stroke-width:12.5px;"/><path d="M787.876,154.369l6.527,67.69l-53.661,-18.67l47.134,-49.02Z" style="fill:#fff;"/></g><path d="M940.807,340.857l-27.275,54.848l-54.849,-27.275l27.275,-54.849l54.849,27.276Z" style="fill:#fff;"/><path d="M815.747,424.515l-17.819,35.833l-35.832,-17.819l17.819,-35.832l35.832,17.818Z" style="fill:#fff;"/><g><path d="M59.38,734.777l-0.187,-0l0,-98.131l54.905,0c31.135,0 46.702,9.61 46.702,28.828c0,19.411 -17.307,29.116 -51.922,29.116l-12.771,-0l0,38.992l0.188,0.002l-0,39.043l-36.915,0l0,-37.85Zm36.727,-49.245l8.297,-0c13.423,-0 20.135,-6.854 20.135,-20.561c-0,-12.844 -6.712,-19.267 -20.135,-19.267l-8.297,0l0,39.828Z" style="fill:#fff;"/><rect x="208.004" y="636.646" width="36.914" height="96.368" style="fill:#fff;fill-rule:nonzero;"/><path d="M396.68,636.646l-33.372,41.23l40.549,55.138l-41.015,0l-24.423,-33.887l-27.127,33.887l-16.592,0l35.888,-44.054l-38.405,-52.314l40.922,0l22.745,31.417l24.61,-31.417l16.22,0Z" style="fill:#fff;fill-rule:nonzero;"/><path d="M533.526,636.646l0,9.672l-45.583,0l-0,29.158l38.312,-0l0,9.672l-38.312,0l-0,38.194l53.32,0l0,9.672l-90.234,0l-0,-96.368l82.497,0Z" style="fill:#fff;fill-rule:nonzero;"/><path d="M624.449,636.646l0,86.696l52.295,0l0,9.672l-89.209,0l0,-96.368l36.914,0Z" style="fill:#fff;fill-rule:nonzero;"/><path d="M724.754,733.014l-0.033,0l0,-96.368l36.914,0l0,90.963l0.034,0.001l-0,44.897l-36.915,0l0,-39.493Z" style="fill:#fff;"/><path d="M878.906,636.646l35.423,96.368l-37.101,0l-7.55,-20.897l-38.313,-0l-8.11,20.897l-14.449,0l37.66,-96.368l32.44,0Zm-43.905,65.799l31.228,-0l-15.008,-42.713l-16.22,42.713Z" style="fill:#fff;fill-rule:nonzero;"/></g><g transform="matrix(77.664,0,0,77.664,691.179,831.638)"></g><text x="281.774px" y="831.638px" style="font-family:'AgencyFB-Reg', 'Agency FB';font-stretch:condensed;font-size:77.664px;fill:#fff;">Digital Marketing</text></g></svg>