<?xml version="1.0" encoding="UTF-8" standalone="no"?><!DOCTYPE svg PUBLIC "-//W3C//DTD SVG 1.1//EN" "http://www.w3.org/Graphics/SVG/1.1/DTD/svg11.dtd"><svg width="100%" height="100%" viewBox="0 0 1000 250" version="1.1" xmlns="http://www.w3.org/2000/svg" xmlns:xlink="http://www.w3.org/1999/xlink" xml:space="preserve" xmlns:serif="http://www.serif.com/" style="fill-rule:evenodd;clip-rule:evenodd;stroke-linecap:square;stroke-linejoin:round;stroke-miterlimit:1.5;"><g id="Côte-à-Côte---Violet" serif:id="Côte à Côte - Violet"><g><path d="M9.546,219.751c0,-0 20.474,-61.792 73.115,-82.034c56.826,-21.853 62.53,0.45 112.164,-9.427c52.372,-10.423 72.44,-71.976 72.44,-71.976" style="fill:none;stroke:#cccacd;stroke-width:12.5px;"/><path d="M276.39,30.249l2.847,29.53l-23.409,-8.145l20.562,-21.385Z" style="fill:#cccacd;"/></g><path d="M71.264,123.145l0,87.71l-48.726,-0l0,-87.71l48.726,-0Zm62.592,-22.794l0,110.504l-48.726,-0l0,-110.504l48.726,-0Zm62.592,-18.031l0,128.535l-48.726,-0l0,-128.535l48.726,-0Zm62.592,-18.733l0,147.268l-48.726,-0l0,-147.268l48.726,0Z" style="fill:#fff;"/><path d="M343.104,111.603l-11.898,23.927l-23.927,-11.899l11.898,-23.927l23.927,11.899Z" style="fill:#fff;"/><path d="M288.548,148.098l-7.773,15.632l-15.632,-7.774l7.774,-15.631l15.631,7.773Z" style="fill:#fff;"/><g><path d="M394.193,135.186l-0.13,-0l-0,-68.439l38.292,0c21.714,0 32.571,6.702 32.571,20.106c-0,13.537 -12.071,20.305 -36.212,20.305l-8.907,0l0,27.194l0.131,0.002l0,27.229l-25.745,0l0,-26.397Zm25.614,-34.345l5.786,0c9.362,0 14.043,-4.78 14.043,-14.339c0,-8.958 -4.681,-13.437 -14.043,-13.437l-5.786,-0l0,27.776Z" style="fill:#fff;"/><rect x="497.847" y="66.747" width="25.745" height="67.209" style="fill:#fff;fill-rule:nonzero;"/><path d="M629.434,66.747l-23.275,28.755l28.28,38.455l-28.605,-0l-17.033,-23.635l-18.919,23.635l-11.572,-0l25.03,-30.725l-26.785,-36.485l28.54,0l15.863,21.911l17.163,-21.911l11.313,0Z" style="fill:#fff;fill-rule:nonzero;"/><path d="M724.873,66.747l0,6.746l-31.791,-0l0,20.335l26.72,-0l0,6.745l-26.72,0l0,26.638l37.187,-0l0,6.746l-62.931,-0l-0,-67.21l57.535,0Z" style="fill:#fff;fill-rule:nonzero;"/><path d="M788.285,66.747l0,60.464l36.472,-0l-0,6.746l-62.217,-0l0,-67.21l25.745,0Z" style="fill:#fff;fill-rule:nonzero;"/><path d="M858.24,133.957l-0.023,-0l0,-67.21l25.745,0l-0,63.44l0.023,0l0,31.313l-25.745,-0l0,-27.543Z" style="fill:#fff;"/><path d="M965.749,66.747l24.705,67.21l-25.875,-0l-5.266,-14.575l-26.72,0l-5.656,14.575l-10.077,-0l26.265,-67.21l22.624,0Zm-30.621,45.89l21.78,-0l-10.467,-29.789l-11.313,29.789Z" style="fill:#fff;fill-rule:nonzero;"/></g><g transform="matrix(54.1646,0,0,54.1646,834.824,202.739)"></g><text x="549.296px" y="202.739px" style="font-family:'AgencyFB-Reg', 'Agency FB';font-stretch:condensed;font-size:54.165px;fill:#fff;">Digital Marketing</text></g></svg>